<svg width="79" height="89" viewBox="0 0 79 89" fill="none" xmlns="http://www.w3.org/2000/svg">
<path d="M6.5 44.1074V12.1074H4L7 3.60742H12L15 12.1074H12.5V44.1074M6.5 44.1074H12.5M6.5 44.1074L2 44.6074V48.1074L5 49.6074V53.6074L2 55.6074V80.6074L7 86.6074H13L17 80.6074V55.6074L14 53.6074V49.6074L16.5 48.1074V44.6074L12.5 44.1074M8.5 57.6074V81.1074M8.5 57.6074L11 81.1074M8.5 57.6074H9.125M8.5 81.1074L11 57.6074M8.5 81.1074H9M11 81.1074V57.6074M11 81.1074H10.375M11 57.6074H10.375M9.75 81.1074V57.6074M9.75 81.1074H9M9.75 81.1074H10.375M9.75 57.6074H9.125M9.75 57.6074H10.375M9.125 57.6074L9 81.1074M10.375 81.1074V57.6074" stroke="#D2153D" stroke-width="3"/>
<path d="M36.5 44.1074V12.1074L39 2.60742H40L42.5 12.1074V44.1074M36.5 44.1074H42.5M36.5 44.1074L32 44.6074V48.1074L35 49.6074V53.6074L32 55.6074V80.6074L37 86.6074H43L47 80.6074V55.6074L44 53.6074V49.6074L46.5 48.1074V44.6074L42.5 44.1074M38.5 57.6074V81.1074M38.5 57.6074L41 81.1074M38.5 57.6074H39.125M38.5 81.1074L41 57.6074M38.5 81.1074H39M41 81.1074V57.6074M41 81.1074H40.375M41 57.6074H40.375M39.75 81.1074V57.6074M39.75 81.1074H39M39.75 81.1074H40.375M39.75 57.6074H39.125M39.75 57.6074H40.375M39.125 57.6074L39 81.1074M40.375 81.1074V57.6074" stroke="#D2153D" stroke-width="3"/>
<path d="M66.5 44.1074V15.6075H64.5V2.10742H75V15.6074H72.5V44.1074M66.5 44.1074H72.5M66.5 44.1074L62 44.6074V48.1074L65 49.6074V53.6074L62 55.6074V80.6074L67 86.6074H73L77 80.6074V55.6074L74 53.6074V49.6074L76.5 48.1074V44.6074L72.5 44.1074M68.5 57.6074V81.1074M68.5 57.6074L71 81.1074M68.5 57.6074H69.125M68.5 81.1074L71 57.6074M68.5 81.1074H69M71 81.1074V57.6074M71 81.1074H70.375M71 57.6074H70.375M69.75 81.1074V57.6074M69.75 81.1074H69M69.75 81.1074H70.375M69.75 57.6074H69.125M69.75 57.6074H70.375M69.125 57.6074L69 81.1074M70.375 81.1074V57.6074" stroke="#D2153D" stroke-width="3"/>
</svg>
