<svg width="40" height="40" viewBox="0 0 40 40" fill="none" xmlns="http://www.w3.org/2000/svg">
<g clip-path="url(#clip0_2_476)">
<circle cx="20" cy="20" r="20" fill="white"/>
<path d="M15.5156 27V16.4883H12.2461V27H15.5156ZM13.8633 15.082C14.918 15.082 15.7617 14.2031 15.7617 13.1484C15.7617 12.1289 14.918 11.2852 13.8633 11.2852C12.8438 11.2852 12 12.1289 12 13.1484C12 14.2031 12.8438 15.082 13.8633 15.082ZM27.7148 27H27.75V21.2344C27.75 18.4219 27.1172 16.2422 23.8125 16.2422C22.2305 16.2422 21.1758 17.1211 20.7188 17.9297H20.6836V16.4883H17.5547V27H20.8242V21.7969C20.8242 20.4258 21.0703 19.125 22.7578 19.125C24.4453 19.125 24.4805 20.6719 24.4805 21.9023V27H27.7148Z" fill="#001ED3"/>
</g>
<defs>
<clipPath id="clip0_2_476">
<rect width="40" height="40" fill="white"/>
</clipPath>
</defs>
</svg>
