<svg width="80" height="80" viewBox="0 0 80 80" fill="none" xmlns="http://www.w3.org/2000/svg">
<g clip-path="url(#clip0_303_20)">
<rect width="80" height="80" fill="#001ED3"/>
<path d="M53 29H45C43.3125 29 42 30.375 42 32V40C42 41.6875 43.3125 43 45 43H50V47C50 49.25 48.1875 51 46 51H45.5C44.625 51 44 51.6875 44 52.5V55.5C44 56.375 44.625 57 45.5 57H46C51.5 57 56 52.5625 56 47V32C56 30.375 54.625 29 53 29ZM35 29H27C25.3125 29 24 30.375 24 32V40C24 41.6875 25.3125 43 27 43H32V47C32 49.25 30.1875 51 28 51H27.5C26.625 51 26 51.6875 26 52.5V55.5C26 56.375 26.625 57 27.5 57H28C33.5 57 38 52.5625 38 47V32C38 30.375 36.625 29 35 29Z" fill="white"/>
</g>
<defs>
<clipPath id="clip0_303_20">
<rect width="80" height="80" fill="white"/>
</clipPath>
</defs>
</svg>
