<svg width="55" height="55" viewBox="0 0 55 55" fill="none" xmlns="http://www.w3.org/2000/svg">
<g clip-path="url(#clip0_2_223)">
<rect width="55" height="55" fill="#D2153D"/>
<path d="M32.0703 26.2188V23.8828C32.0703 23.3411 32.3242 22.9688 32.832 22.7656C33.3398 22.5625 33.7799 22.6471 34.1523 23.0195L38.5195 27.3867C38.6888 27.556 38.7904 27.7422 38.8242 27.9453C38.8919 28.1484 38.8919 28.3516 38.8242 28.5547C38.7904 28.7578 38.6888 28.944 38.5195 29.1133L34.1523 33.4805C33.7799 33.8529 33.3398 33.9375 32.832 33.7344C32.3242 33.5312 32.0703 33.1589 32.0703 32.6172V30.2812H16.7344C16.3281 30.2812 16.125 30.0781 16.125 29.6719V26.8281C16.125 26.4219 16.3281 26.2188 16.7344 26.2188H32.0703Z" fill="white"/>
</g>
<defs>
<clipPath id="clip0_2_223">
<rect width="55" height="55" fill="white"/>
</clipPath>
</defs>
</svg>
